<mxfile host="app.diagrams.net" agent="Mozilla/5.0 (Macintosh; Intel Mac OS X 10_15_7) AppleWebKit/537.36 (KHTML, like Gecko) Chrome/136.0.0.0 Safari/537.36" version="27.0.6">
  <diagram name="Pagina-1" id="CG6rrBfTmc7kEE_Q7tgc">
    <mxGraphModel dx="1113" dy="758" grid="1" gridSize="10" guides="1" tooltips="1" connect="1" arrows="1" fold="1" page="1" pageScale="1" pageWidth="827" pageHeight="1169" math="0" shadow="0">
      <root>
        <mxCell id="0" />
        <mxCell id="1" parent="0" />
        <mxCell id="tA1dRLEZQLzJaWhitYoO-190" value="" style="ellipse;whiteSpace=wrap;html=1;aspect=fixed;fillColor=#F2FF3D;" vertex="1" parent="1">
          <mxGeometry x="286" y="978" width="14" height="14" as="geometry" />
        </mxCell>
        <mxCell id="tA1dRLEZQLzJaWhitYoO-191" value="Id_Encounter&lt;div&gt;&amp;nbsp;+&lt;div&gt;Code_Procedure&lt;br&gt;&lt;/div&gt;&lt;/div&gt;" style="text;html=1;align=center;verticalAlign=middle;resizable=0;points=[];autosize=1;strokeColor=none;fillColor=none;" vertex="1" parent="1">
          <mxGeometry x="238" y="903" width="110" height="60" as="geometry" />
        </mxCell>
        <mxCell id="tA1dRLEZQLzJaWhitYoO-200" style="edgeStyle=orthogonalEdgeStyle;rounded=0;orthogonalLoop=1;jettySize=auto;html=1;exitX=0.5;exitY=0;exitDx=0;exitDy=0;entryX=0;entryY=1;entryDx=0;entryDy=0;curved=1;endArrow=none;startFill=0;" edge="1" parent="1" source="tA1dRLEZQLzJaWhitYoO-201" target="tA1dRLEZQLzJaWhitYoO-190">
          <mxGeometry relative="1" as="geometry" />
        </mxCell>
        <mxCell id="tA1dRLEZQLzJaWhitYoO-201" value="" style="ellipse;whiteSpace=wrap;html=1;aspect=fixed;fillColor=#FFFFFF;" vertex="1" parent="1">
          <mxGeometry x="266" y="1028" width="14" height="14" as="geometry" />
        </mxCell>
        <mxCell id="tA1dRLEZQLzJaWhitYoO-202" value="Start" style="text;html=1;align=center;verticalAlign=middle;resizable=0;points=[];autosize=1;strokeColor=none;fillColor=none;" vertex="1" parent="1">
          <mxGeometry x="238" y="1042" width="50" height="30" as="geometry" />
        </mxCell>
        <mxCell id="tA1dRLEZQLzJaWhitYoO-204" style="edgeStyle=orthogonalEdgeStyle;rounded=0;orthogonalLoop=1;jettySize=auto;html=1;exitX=1;exitY=0.5;exitDx=0;exitDy=0;entryX=0;entryY=0.5;entryDx=0;entryDy=0;endArrow=none;startFill=0;" edge="1" parent="1" source="tA1dRLEZQLzJaWhitYoO-205" target="tA1dRLEZQLzJaWhitYoO-190">
          <mxGeometry relative="1" as="geometry" />
        </mxCell>
        <mxCell id="tA1dRLEZQLzJaWhitYoO-205" value="" style="ellipse;whiteSpace=wrap;html=1;aspect=fixed;fillColor=#FFFFFF;" vertex="1" parent="1">
          <mxGeometry x="196" y="978" width="14" height="14" as="geometry" />
        </mxCell>
        <mxCell id="tA1dRLEZQLzJaWhitYoO-206" value="Code_Procedure" style="text;html=1;align=center;verticalAlign=middle;resizable=0;points=[];autosize=1;strokeColor=none;fillColor=none;" vertex="1" parent="1">
          <mxGeometry x="148" y="992" width="110" height="30" as="geometry" />
        </mxCell>
        <mxCell id="tA1dRLEZQLzJaWhitYoO-207" style="edgeStyle=orthogonalEdgeStyle;rounded=0;orthogonalLoop=1;jettySize=auto;html=1;entryX=0;entryY=0.5;entryDx=0;entryDy=0;endArrow=none;startFill=0;" edge="1" parent="1" source="tA1dRLEZQLzJaWhitYoO-208" target="tA1dRLEZQLzJaWhitYoO-205">
          <mxGeometry relative="1" as="geometry" />
        </mxCell>
        <mxCell id="tA1dRLEZQLzJaWhitYoO-208" value="" style="ellipse;whiteSpace=wrap;html=1;aspect=fixed;fillColor=#FFFFFF;" vertex="1" parent="1">
          <mxGeometry x="126" y="978" width="14" height="14" as="geometry" />
        </mxCell>
        <mxCell id="tA1dRLEZQLzJaWhitYoO-209" value="Description" style="text;html=1;align=center;verticalAlign=middle;resizable=0;points=[];autosize=1;strokeColor=none;fillColor=none;" vertex="1" parent="1">
          <mxGeometry x="93" y="948" width="80" height="30" as="geometry" />
        </mxCell>
        <mxCell id="tA1dRLEZQLzJaWhitYoO-212" style="edgeStyle=orthogonalEdgeStyle;rounded=0;orthogonalLoop=1;jettySize=auto;html=1;exitX=1;exitY=0.5;exitDx=0;exitDy=0;entryX=0;entryY=0.5;entryDx=0;entryDy=0;endArrow=classic;startFill=0;endFill=1;" edge="1" parent="1" source="tA1dRLEZQLzJaWhitYoO-219" target="tA1dRLEZQLzJaWhitYoO-243">
          <mxGeometry relative="1" as="geometry" />
        </mxCell>
        <mxCell id="tA1dRLEZQLzJaWhitYoO-213" style="edgeStyle=orthogonalEdgeStyle;rounded=0;orthogonalLoop=1;jettySize=auto;html=1;exitX=0.5;exitY=1;exitDx=0;exitDy=0;entryX=0.5;entryY=0;entryDx=0;entryDy=0;curved=1;endArrow=none;startFill=0;" edge="1" parent="1" source="tA1dRLEZQLzJaWhitYoO-219">
          <mxGeometry relative="1" as="geometry">
            <mxPoint x="450.0000000000002" y="1050" as="targetPoint" />
          </mxGeometry>
        </mxCell>
        <mxCell id="tA1dRLEZQLzJaWhitYoO-219" value="" style="ellipse;whiteSpace=wrap;html=1;aspect=fixed;fillColor=#FFFFFF;" vertex="1" parent="1">
          <mxGeometry x="466" y="976" width="14" height="14" as="geometry" />
        </mxCell>
        <mxCell id="tA1dRLEZQLzJaWhitYoO-241" value="Id_Organization" style="text;html=1;align=center;verticalAlign=middle;resizable=0;points=[];autosize=1;strokeColor=none;fillColor=none;" vertex="1" parent="1">
          <mxGeometry x="392" y="946" width="110" height="30" as="geometry" />
        </mxCell>
        <mxCell id="tA1dRLEZQLzJaWhitYoO-242" style="edgeStyle=orthogonalEdgeStyle;rounded=0;orthogonalLoop=1;jettySize=auto;html=1;exitX=1;exitY=0.5;exitDx=0;exitDy=0;entryX=0;entryY=0.5;entryDx=0;entryDy=0;endArrow=none;startFill=0;" edge="1" parent="1" source="tA1dRLEZQLzJaWhitYoO-243" target="tA1dRLEZQLzJaWhitYoO-267">
          <mxGeometry relative="1" as="geometry" />
        </mxCell>
        <mxCell id="tA1dRLEZQLzJaWhitYoO-243" value="" style="ellipse;whiteSpace=wrap;html=1;aspect=fixed;fillColor=#FFFFFF;" vertex="1" parent="1">
          <mxGeometry x="643" y="976" width="14" height="14" as="geometry" />
        </mxCell>
        <mxCell id="tA1dRLEZQLzJaWhitYoO-246" value="" style="ellipse;whiteSpace=wrap;html=1;aspect=fixed;fillColor=#FFFFFF;" vertex="1" parent="1">
          <mxGeometry x="440" y="1050" width="14" height="14" as="geometry" />
        </mxCell>
        <mxCell id="tA1dRLEZQLzJaWhitYoO-248" value="Name" style="text;html=1;align=center;verticalAlign=middle;resizable=0;points=[];autosize=1;strokeColor=none;fillColor=none;" vertex="1" parent="1">
          <mxGeometry x="390" y="1036" width="60" height="30" as="geometry" />
        </mxCell>
        <mxCell id="tA1dRLEZQLzJaWhitYoO-261" value="Id_City" style="text;html=1;align=center;verticalAlign=middle;resizable=0;points=[];autosize=1;strokeColor=none;fillColor=none;" vertex="1" parent="1">
          <mxGeometry x="643" y="982" width="60" height="30" as="geometry" />
        </mxCell>
        <mxCell id="tA1dRLEZQLzJaWhitYoO-262" style="edgeStyle=orthogonalEdgeStyle;rounded=0;orthogonalLoop=1;jettySize=auto;html=1;entryX=0.5;entryY=1;entryDx=0;entryDy=0;endArrow=none;startFill=0;" edge="1" parent="1" source="tA1dRLEZQLzJaWhitYoO-263" target="tA1dRLEZQLzJaWhitYoO-243">
          <mxGeometry relative="1" as="geometry" />
        </mxCell>
        <mxCell id="tA1dRLEZQLzJaWhitYoO-263" value="" style="ellipse;whiteSpace=wrap;html=1;aspect=fixed;fillColor=#FFFFFF;" vertex="1" parent="1">
          <mxGeometry x="643" y="1012" width="14" height="14" as="geometry" />
        </mxCell>
        <mxCell id="tA1dRLEZQLzJaWhitYoO-264" value="Name" style="text;html=1;align=center;verticalAlign=middle;resizable=0;points=[];autosize=1;strokeColor=none;fillColor=none;" vertex="1" parent="1">
          <mxGeometry x="620" y="1020" width="60" height="30" as="geometry" />
        </mxCell>
        <mxCell id="tA1dRLEZQLzJaWhitYoO-265" style="edgeStyle=orthogonalEdgeStyle;rounded=0;orthogonalLoop=1;jettySize=auto;html=1;exitX=0.5;exitY=1;exitDx=0;exitDy=0;entryX=0.5;entryY=0;entryDx=0;entryDy=0;endArrow=none;startFill=0;" edge="1" parent="1" source="tA1dRLEZQLzJaWhitYoO-267" target="tA1dRLEZQLzJaWhitYoO-269">
          <mxGeometry relative="1" as="geometry" />
        </mxCell>
        <mxCell id="tA1dRLEZQLzJaWhitYoO-266" style="edgeStyle=orthogonalEdgeStyle;rounded=0;orthogonalLoop=1;jettySize=auto;html=1;exitX=1;exitY=0.5;exitDx=0;exitDy=0;entryX=0;entryY=0.5;entryDx=0;entryDy=0;endArrow=none;startFill=0;" edge="1" parent="1" source="tA1dRLEZQLzJaWhitYoO-267" target="tA1dRLEZQLzJaWhitYoO-272">
          <mxGeometry relative="1" as="geometry" />
        </mxCell>
        <mxCell id="tA1dRLEZQLzJaWhitYoO-267" value="" style="ellipse;whiteSpace=wrap;html=1;aspect=fixed;fillColor=#FFFFFF;" vertex="1" parent="1">
          <mxGeometry x="723" y="976" width="14" height="14" as="geometry" />
        </mxCell>
        <mxCell id="tA1dRLEZQLzJaWhitYoO-268" value="Id_County" style="text;html=1;align=center;verticalAlign=middle;resizable=0;points=[];autosize=1;strokeColor=none;fillColor=none;" vertex="1" parent="1">
          <mxGeometry x="690" y="948" width="80" height="30" as="geometry" />
        </mxCell>
        <mxCell id="tA1dRLEZQLzJaWhitYoO-269" value="" style="ellipse;whiteSpace=wrap;html=1;aspect=fixed;fillColor=#FFFFFF;" vertex="1" parent="1">
          <mxGeometry x="723" y="1012" width="14" height="14" as="geometry" />
        </mxCell>
        <mxCell id="tA1dRLEZQLzJaWhitYoO-270" value="Name" style="text;html=1;align=center;verticalAlign=middle;resizable=0;points=[];autosize=1;strokeColor=none;fillColor=none;" vertex="1" parent="1">
          <mxGeometry x="700" y="1022" width="60" height="30" as="geometry" />
        </mxCell>
        <mxCell id="tA1dRLEZQLzJaWhitYoO-271" style="edgeStyle=orthogonalEdgeStyle;rounded=0;orthogonalLoop=1;jettySize=auto;html=1;exitX=0.5;exitY=1;exitDx=0;exitDy=0;entryX=0.5;entryY=0;entryDx=0;entryDy=0;endArrow=none;startFill=0;" edge="1" parent="1" source="tA1dRLEZQLzJaWhitYoO-272" target="tA1dRLEZQLzJaWhitYoO-274">
          <mxGeometry relative="1" as="geometry" />
        </mxCell>
        <mxCell id="tA1dRLEZQLzJaWhitYoO-272" value="" style="ellipse;whiteSpace=wrap;html=1;aspect=fixed;fillColor=#FFFFFF;" vertex="1" parent="1">
          <mxGeometry x="793" y="976" width="14" height="14" as="geometry" />
        </mxCell>
        <mxCell id="tA1dRLEZQLzJaWhitYoO-273" value="Id_State" style="text;html=1;align=center;verticalAlign=middle;resizable=0;points=[];autosize=1;strokeColor=none;fillColor=none;" vertex="1" parent="1">
          <mxGeometry x="765" y="948" width="70" height="30" as="geometry" />
        </mxCell>
        <mxCell id="tA1dRLEZQLzJaWhitYoO-274" value="" style="ellipse;whiteSpace=wrap;html=1;aspect=fixed;fillColor=#FFFFFF;" vertex="1" parent="1">
          <mxGeometry x="793" y="1012" width="14" height="14" as="geometry" />
        </mxCell>
        <mxCell id="tA1dRLEZQLzJaWhitYoO-275" value="Name" style="text;html=1;align=center;verticalAlign=middle;resizable=0;points=[];autosize=1;strokeColor=none;fillColor=none;" vertex="1" parent="1">
          <mxGeometry x="767" y="1036" width="60" height="30" as="geometry" />
        </mxCell>
        <mxCell id="tA1dRLEZQLzJaWhitYoO-368" style="edgeStyle=orthogonalEdgeStyle;rounded=0;orthogonalLoop=1;jettySize=auto;html=1;exitX=0.5;exitY=1;exitDx=0;exitDy=0;entryX=0.5;entryY=0;entryDx=0;entryDy=0;endArrow=none;startFill=0;" edge="1" parent="1" source="tA1dRLEZQLzJaWhitYoO-369" target="tA1dRLEZQLzJaWhitYoO-205">
          <mxGeometry relative="1" as="geometry" />
        </mxCell>
        <mxCell id="tA1dRLEZQLzJaWhitYoO-369" value="" style="ellipse;whiteSpace=wrap;html=1;aspect=fixed;fillColor=#FFFFFF;" vertex="1" parent="1">
          <mxGeometry x="196" y="886" width="14" height="14" as="geometry" />
        </mxCell>
        <mxCell id="tA1dRLEZQLzJaWhitYoO-370" value="Base_Cost" style="text;html=1;align=center;verticalAlign=middle;resizable=0;points=[];autosize=1;strokeColor=none;fillColor=none;" vertex="1" parent="1">
          <mxGeometry x="153" y="856" width="80" height="30" as="geometry" />
        </mxCell>
        <mxCell id="tA1dRLEZQLzJaWhitYoO-386" style="edgeStyle=orthogonalEdgeStyle;rounded=0;orthogonalLoop=1;jettySize=auto;html=1;exitX=1;exitY=0.5;exitDx=0;exitDy=0;entryX=0.011;entryY=0.706;entryDx=0;entryDy=0;entryPerimeter=0;endArrow=none;startFill=0;" edge="1" parent="1" source="tA1dRLEZQLzJaWhitYoO-190" target="tA1dRLEZQLzJaWhitYoO-219">
          <mxGeometry relative="1" as="geometry" />
        </mxCell>
      </root>
    </mxGraphModel>
  </diagram>
</mxfile>
